<mxfile host="app.diagrams.net" agent="Mozilla/5.0 (X11; Ubuntu; Linux x86_64; rv:129.0) Gecko/20100101 Firefox/129.0" version="24.7.14">
  <diagram name="Page-1" id="wV4IU_wK07Ir7xMAx_W2">
    <mxGraphModel dx="1674" dy="789" grid="1" gridSize="10" guides="1" tooltips="1" connect="1" arrows="1" fold="1" page="1" pageScale="1" pageWidth="850" pageHeight="1100" math="0" shadow="0">
      <root>
        <mxCell id="0" />
        <mxCell id="1" parent="0" />
        <mxCell id="DwL9asgr4rcvif4lkKyX-1" value="" style="sketch=0;outlineConnect=0;gradientColor=none;fontColor=#545B64;strokeColor=none;fillColor=#1A5FB4;dashed=0;verticalLabelPosition=bottom;verticalAlign=top;align=center;html=1;fontSize=12;fontStyle=0;aspect=fixed;shape=mxgraph.aws4.illustration_desktop;pointerEvents=1" vertex="1" parent="1">
          <mxGeometry x="16" y="190" width="819" height="745.29" as="geometry" />
        </mxCell>
        <mxCell id="DwL9asgr4rcvif4lkKyX-2" value="" style="rounded=0;orthogonalLoop=1;jettySize=auto;html=1;shape=flexArrow;" edge="1" parent="1" source="DwL9asgr4rcvif4lkKyX-3" target="DwL9asgr4rcvif4lkKyX-5">
          <mxGeometry relative="1" as="geometry" />
        </mxCell>
        <mxCell id="DwL9asgr4rcvif4lkKyX-3" value="" style="sketch=0;points=[[0.015,0.015,0],[0.985,0.015,0],[0.985,0.985,0],[0.015,0.985,0],[0.25,0,0],[0.5,0,0],[0.75,0,0],[1,0.25,0],[1,0.5,0],[1,0.75,0],[0.75,1,0],[0.5,1,0],[0.25,1,0],[0,0.75,0],[0,0.5,0],[0,0.25,0]];verticalLabelPosition=bottom;html=1;verticalAlign=top;aspect=fixed;align=center;pointerEvents=1;shape=mxgraph.cisco19.rect;prIcon=anomaly_detection;fillColor=none;strokeColor=#82b366;" vertex="1" parent="1">
          <mxGeometry x="85.50000000000003" y="302" width="98" height="98" as="geometry" />
        </mxCell>
        <mxCell id="DwL9asgr4rcvif4lkKyX-4" value="" style="rounded=0;orthogonalLoop=1;jettySize=auto;html=1;shape=flexArrow;" edge="1" parent="1" source="DwL9asgr4rcvif4lkKyX-5" target="DwL9asgr4rcvif4lkKyX-7">
          <mxGeometry relative="1" as="geometry">
            <mxPoint x="326.605" y="451" as="targetPoint" />
          </mxGeometry>
        </mxCell>
        <mxCell id="DwL9asgr4rcvif4lkKyX-5" value="" style="image;aspect=fixed;html=1;points=[];align=center;fontSize=12;image=img/lib/azure2/other/Data_Collection_Rules.svg;" vertex="1" parent="1">
          <mxGeometry x="280" y="268.5" width="85.21" height="87" as="geometry" />
        </mxCell>
        <mxCell id="DwL9asgr4rcvif4lkKyX-6" style="rounded=0;orthogonalLoop=1;jettySize=auto;html=1;shape=flexArrow;" edge="1" parent="1" source="DwL9asgr4rcvif4lkKyX-7" target="DwL9asgr4rcvif4lkKyX-9">
          <mxGeometry relative="1" as="geometry" />
        </mxCell>
        <mxCell id="DwL9asgr4rcvif4lkKyX-7" value="" style="dashed=0;outlineConnect=0;html=1;align=center;labelPosition=center;verticalLabelPosition=bottom;verticalAlign=top;shape=mxgraph.weblogos.json;fillColor=#666666;" vertex="1" parent="1">
          <mxGeometry x="370" y="453" width="84" height="94" as="geometry" />
        </mxCell>
        <mxCell id="DwL9asgr4rcvif4lkKyX-8" style="rounded=0;orthogonalLoop=1;jettySize=auto;html=1;entryX=0;entryY=0.5;entryDx=0;entryDy=0;shape=flexArrow;" edge="1" parent="1" source="DwL9asgr4rcvif4lkKyX-9" target="DwL9asgr4rcvif4lkKyX-11">
          <mxGeometry relative="1" as="geometry" />
        </mxCell>
        <mxCell id="DwL9asgr4rcvif4lkKyX-9" value="" style="verticalLabelPosition=bottom;sketch=0;aspect=fixed;html=1;verticalAlign=top;strokeColor=none;align=center;outlineConnect=0;shape=mxgraph.citrix.process;" vertex="1" parent="1">
          <mxGeometry x="467" y="255.07" width="95.5" height="113.86" as="geometry" />
        </mxCell>
        <mxCell id="DwL9asgr4rcvif4lkKyX-10" value="" style="rounded=0;orthogonalLoop=1;jettySize=auto;html=1;shape=flexArrow;" edge="1" parent="1" source="DwL9asgr4rcvif4lkKyX-11" target="DwL9asgr4rcvif4lkKyX-12">
          <mxGeometry relative="1" as="geometry" />
        </mxCell>
        <mxCell id="DwL9asgr4rcvif4lkKyX-11" value="" style="image;aspect=fixed;perimeter=ellipsePerimeter;html=1;align=center;shadow=0;dashed=0;spacingTop=3;image=img/lib/active_directory/database_server.svg;fillColor=#00FFFF;" vertex="1" parent="1">
          <mxGeometry x="647" y="285" width="124" height="151.21" as="geometry" />
        </mxCell>
        <mxCell id="DwL9asgr4rcvif4lkKyX-12" value="" style="image;aspect=fixed;html=1;points=[];align=center;fontSize=12;image=img/lib/azure2/general/Dashboard2.svg;" vertex="1" parent="1">
          <mxGeometry x="653.5" y="526.23" width="113" height="79.77" as="geometry" />
        </mxCell>
        <mxCell id="DwL9asgr4rcvif4lkKyX-13" value="" style="rounded=0;orthogonalLoop=1;jettySize=auto;html=1;fontColor=#FFFFFF;shape=flexArrow;fillColor=default;" edge="1" parent="1" target="DwL9asgr4rcvif4lkKyX-3">
          <mxGeometry relative="1" as="geometry">
            <mxPoint x="134.13275434243178" y="499" as="sourcePoint" />
          </mxGeometry>
        </mxCell>
        <mxCell id="DwL9asgr4rcvif4lkKyX-15" value="&lt;b&gt;&lt;font style=&quot;font-size: 10px;&quot;&gt;PYTHON SCRIPT&lt;/font&gt;&lt;/b&gt;" style="text;html=1;align=center;verticalAlign=middle;resizable=0;points=[];autosize=1;strokeColor=none;fillColor=none;" vertex="1" parent="1">
          <mxGeometry x="84.5" y="620" width="100" height="30" as="geometry" />
        </mxCell>
        <mxCell id="DwL9asgr4rcvif4lkKyX-16" value="&lt;h5 align=&quot;center&quot;&gt;&lt;font face=&quot;Helvetica&quot;&gt;MODEL CRAWLS &lt;br&gt;&lt;/font&gt;&lt;/h5&gt;" style="text;html=1;align=center;verticalAlign=middle;resizable=0;points=[];autosize=1;strokeColor=none;fillColor=none;" vertex="1" parent="1">
          <mxGeometry x="66" y="231" width="101" height="57" as="geometry" />
        </mxCell>
        <mxCell id="DwL9asgr4rcvif4lkKyX-17" value="&lt;h5&gt;&lt;font style=&quot;font-size: 11px;&quot;&gt;SCRAPE/COLLECTS THE DATA&lt;/font&gt;&lt;/h5&gt;" style="text;html=1;align=center;verticalAlign=middle;resizable=0;points=[];autosize=1;strokeColor=none;fillColor=none;" vertex="1" parent="1">
          <mxGeometry x="211" y="206" width="185" height="58" as="geometry" />
        </mxCell>
        <mxCell id="DwL9asgr4rcvif4lkKyX-18" value="&lt;h5&gt;STORE DATA IN JSON FORMAT&lt;/h5&gt;" style="text;html=1;align=center;verticalAlign=middle;resizable=0;points=[];autosize=1;strokeColor=none;fillColor=none;" vertex="1" parent="1">
          <mxGeometry x="340" y="547" width="171" height="57" as="geometry" />
        </mxCell>
        <mxCell id="DwL9asgr4rcvif4lkKyX-19" value="&lt;h5&gt;&lt;font style=&quot;font-size: 11px;&quot;&gt;DATA PREPROCESSING&lt;/font&gt;&lt;/h5&gt;" style="text;html=1;align=center;verticalAlign=middle;resizable=0;points=[];autosize=1;strokeColor=none;fillColor=none;" vertex="1" parent="1">
          <mxGeometry x="441.25" y="206" width="148" height="58" as="geometry" />
        </mxCell>
        <mxCell id="DwL9asgr4rcvif4lkKyX-20" value="&lt;h5&gt;&lt;font style=&quot;font-size: 11px;&quot;&gt;STORE IN DATABASE&lt;/font&gt;&lt;/h5&gt;" style="text;html=1;align=center;verticalAlign=middle;resizable=0;points=[];autosize=1;strokeColor=none;fillColor=none;" vertex="1" parent="1">
          <mxGeometry x="643" y="235" width="134" height="58" as="geometry" />
        </mxCell>
        <mxCell id="DwL9asgr4rcvif4lkKyX-21" value="&lt;h5&gt;FETCH AND DISPLAY&amp;nbsp; THE DATA&lt;/h5&gt;" style="text;html=1;align=center;verticalAlign=middle;resizable=0;points=[];autosize=1;strokeColor=none;fillColor=none;" vertex="1" parent="1">
          <mxGeometry x="624" y="600" width="177" height="57" as="geometry" />
        </mxCell>
        <mxCell id="DwL9asgr4rcvif4lkKyX-22" value="&lt;h5 align=&quot;center&quot;&gt;&lt;font style=&quot;font-size: 11px;&quot; face=&quot;Helvetica&quot;&gt;THROUGH THE WEBSITES&lt;/font&gt;&lt;/h5&gt;" style="text;html=1;align=center;verticalAlign=middle;resizable=0;points=[];autosize=1;strokeColor=none;fillColor=none;" vertex="1" parent="1">
          <mxGeometry x="37.5" y="248" width="159" height="58" as="geometry" />
        </mxCell>
        <mxCell id="DwL9asgr4rcvif4lkKyX-24" value="" style="sketch=0;outlineConnect=0;fontColor=#232F3E;gradientColor=none;fillColor=#CC6600;strokeColor=none;dashed=0;verticalLabelPosition=bottom;verticalAlign=top;align=center;html=1;fontSize=12;fontStyle=0;aspect=fixed;pointerEvents=1;shape=mxgraph.aws4.source_code;" vertex="1" parent="1">
          <mxGeometry x="96" y="509.96" width="73.11" height="100.04" as="geometry" />
        </mxCell>
      </root>
    </mxGraphModel>
  </diagram>
</mxfile>
